<svg width="48" height="48" viewBox="0 0 48 48" fill="none" xmlns="http://www.w3.org/2000/svg">
<g filter="url(#filter0_b_12_466)">
<path d="M48 24C48 30.3652 45.4714 36.4697 40.9706 40.9706C36.4697 45.4714 30.3652 48 24 48C17.6348 48 11.5303 45.4714 7.02944 40.9706C2.52856 36.4697 0 30.3652 0 24C0 17.6348 2.52856 11.5303 7.02944 7.02944C11.5303 2.52856 17.6348 0 24 0C30.3652 0 36.4697 2.52856 40.9706 7.02944C45.4714 11.5303 48 17.6348 48 24ZM20.37 15.279C20.1457 15.1193 19.8818 15.0244 19.6072 15.0048C19.3325 14.9851 19.0578 15.0414 18.813 15.1675C18.5683 15.2936 18.3629 15.4846 18.2195 15.7197C18.0761 15.9547 18.0002 16.2247 18 16.5V31.5C18.0002 31.7753 18.0761 32.0453 18.2195 32.2803C18.3629 32.5154 18.5683 32.7064 18.813 32.8325C19.0578 32.9586 19.3325 33.0149 19.6072 32.9952C19.8818 32.9756 20.1457 32.8807 20.37 32.721L30.87 25.221C31.0644 25.0822 31.2229 24.8991 31.3323 24.6867C31.4417 24.4743 31.4987 24.2389 31.4987 24C31.4987 23.7611 31.4417 23.5257 31.3323 23.3133C31.2229 23.1009 31.0644 22.9178 30.87 22.779L20.37 15.279Z" fill="white" fill-opacity="0.5"/>
</g>
<defs>
<filter id="filter0_b_12_466" x="-5" y="-5" width="58" height="58" filterUnits="userSpaceOnUse" color-interpolation-filters="sRGB">
<feFlood flood-opacity="0" result="BackgroundImageFix"/>
<feGaussianBlur in="BackgroundImageFix" stdDeviation="2.5"/>
<feComposite in2="SourceAlpha" operator="in" result="effect1_backgroundBlur_12_466"/>
<feBlend mode="normal" in="SourceGraphic" in2="effect1_backgroundBlur_12_466" result="shape"/>
</filter>
</defs>
</svg>
