<svg width="153" height="153" viewBox="0 0 153 153" fill="none" xmlns="http://www.w3.org/2000/svg">
<circle cx="76.5" cy="76.5" r="76.5" fill="#1D617A"/>
<circle cx="76.5029" cy="76.5002" r="62.5659" fill="#1D617A" stroke="#ECF1F3" stroke-dasharray="7 7"/>
<circle cx="76.4996" cy="76.4998" r="45.9" fill="#8CACBA"/>
<path d="M96.8162 64.8713C95.7558 64.2406 94.6619 63.572 94.1284 62.894C93.5949 62.216 93.3118 61.0721 92.9792 59.9181C92.3885 57.8011 91.6938 55.3837 89.5571 54.1501C87.4205 52.9165 84.9795 53.5236 82.8509 54.0705C81.6851 54.3594 80.4975 54.6542 79.699 54.5632C78.9006 54.4722 77.7191 53.8271 76.6428 53.2242C74.7457 52.1844 72.577 51.0063 70.301 51.6161C68.025 52.226 66.7359 54.3306 65.6129 56.1796C64.9822 57.2399 64.3136 58.3339 63.6356 58.8674C62.9576 59.4009 61.8137 59.6839 60.6597 60.0166C58.5427 60.6073 56.1252 61.302 54.8916 63.4387C53.658 65.5753 54.2652 68.0162 54.8121 70.1449C55.101 71.3107 55.3958 72.4983 55.3048 73.2968C55.2138 74.0952 54.5687 75.2767 53.9658 76.353C52.926 78.2501 51.7479 80.4188 52.3577 82.6948C52.9676 84.9708 55.0722 86.2599 56.9212 87.3829C57.9815 88.0136 59.0755 88.6822 59.609 89.3602C60.1425 90.0382 60.4255 91.1821 60.7582 92.3361C61.3489 94.4531 62.0436 96.8705 64.1802 98.1041C66.3169 99.3377 68.7578 98.7306 70.8865 98.1837C72.0523 97.8948 73.2399 97.6 74.0383 97.691C74.8368 97.782 76.0182 98.4271 77.0946 99.03C78.9917 100.07 81.1604 101.248 83.4364 100.638C85.7124 100.028 87.0015 97.9236 88.1245 96.0746C88.7552 95.0143 89.4238 93.9203 90.1018 93.3868C90.7798 92.8533 91.9237 92.5703 93.0777 92.2376C95.1946 91.6469 97.6121 90.9522 98.8457 88.8156C100.079 86.6789 99.4722 84.238 98.9253 82.1093C98.6364 80.9435 98.3416 79.7559 98.4326 78.9574C98.5236 78.159 99.1687 76.9775 99.7716 75.9012C100.811 74.0041 101.99 71.8354 101.38 69.5594C100.77 67.2834 98.6652 65.9943 96.8162 64.8713ZM86.6344 69.2414L77.0938 84.9332C76.8458 85.3339 76.4532 85.6239 75.9972 85.743C75.5492 85.8649 75.0714 85.8079 74.6646 85.5841L66.6104 81.1745C66.391 81.067 66.1955 80.9162 66.0359 80.7312C65.8762 80.5463 65.7556 80.3309 65.6812 80.0982C65.6069 79.8654 65.5804 79.62 65.6033 79.3767C65.6263 79.1334 65.6982 78.8973 65.8147 78.6825C65.9312 78.4678 66.0899 78.2787 66.2814 78.1269C66.4728 77.975 66.693 77.8634 66.9286 77.7988C67.1643 77.7342 67.4106 77.7179 67.6527 77.7509C67.8948 77.7839 68.1277 77.8655 68.3375 77.9908L74.8772 81.563L83.5469 67.3478C83.8077 66.9596 84.2085 66.6872 84.6655 66.5877C85.1225 66.4881 85.6003 66.569 85.999 66.8135C86.3977 67.0581 86.6864 67.4472 86.8048 67.8997C86.9232 68.3522 86.8622 68.8329 86.6344 69.2414Z" fill="#ECF1F3"/>
</svg>
