<svg width="153" height="153" viewBox="0 0 153 153" fill="none" xmlns="http://www.w3.org/2000/svg">
<circle cx="76.5" cy="76.5" r="76.5" fill="#1D617A"/>
<path opacity="0.4" d="M112.784 39.4001V43.4801C112.784 44.4961 112.432 45.3521 111.802 45.9442C111.181 46.5442 110.283 46.8802 109.218 46.8802V48.3282C109.218 48.8722 108.58 49.2002 108.11 48.8962L107.296 48.3842C107.371 48.1362 107.405 47.8642 107.405 47.5762V44.3201C107.405 42.6881 106.264 41.6001 104.552 41.6001H98.8533C98.7358 41.6001 98.6267 41.6081 98.5176 41.6161V39.4001C98.5176 37.36 99.9442 36 102.084 36H109.218C111.358 36 112.784 37.36 112.784 39.4001Z" fill="#1D617A"/>
<path d="M107.405 44.3203V47.5764C107.405 47.8644 107.371 48.1364 107.296 48.3844C106.985 49.5604 105.961 50.2964 104.552 50.2964H102.269L99.7345 51.9044C99.3569 52.1524 98.8533 51.8884 98.8533 51.4564V50.2964C97.9973 50.2964 97.284 50.0244 96.7889 49.5524C96.2853 49.0724 96 48.3924 96 47.5764V44.3203C96 42.8003 96.9903 41.7523 98.5176 41.6163C98.6267 41.6083 98.7358 41.6003 98.8533 41.6003H104.552C106.264 41.6003 107.405 42.6883 107.405 44.3203Z" fill="#1D617A"/>
<path d="M76.6097 72.0593C86.1804 72.0593 93.9391 64.2109 93.9391 54.5296C93.9391 44.8482 86.1804 36.9999 76.6097 36.9999C67.0389 36.9999 59.2803 44.8482 59.2803 54.5296C59.2803 64.2109 67.0389 72.0593 76.6097 72.0593Z" fill="#ECF1F3"/>
<path d="M76.61 80.8235C59.2458 80.8235 45.105 92.6035 45.105 107.118C45.105 108.1 45.8675 108.871 46.8379 108.871H106.382C107.352 108.871 108.115 108.1 108.115 107.118C108.115 92.6035 93.9741 80.8235 76.61 80.8235Z" fill="#ECF1F3"/>
<path d="M106.817 77.3456C113.253 77.3456 118.47 72.0682 118.47 65.5583C118.47 59.0483 113.253 53.771 106.817 53.771C100.382 53.771 95.1646 59.0483 95.1646 65.5583C95.1646 72.0682 100.382 77.3456 106.817 77.3456Z" fill="#ECF1F3"/>
<path d="M106.815 83.2379C95.1394 83.2379 85.6309 91.159 85.6309 100.919C85.6309 101.579 86.1436 102.098 86.7961 102.098H126.835C127.487 102.098 128 101.579 128 100.919C128 91.159 118.491 83.2379 106.815 83.2379Z" fill="#ECF1F3"/>
<path d="M44.1834 77.3456C50.6189 77.3456 55.836 72.0682 55.836 65.5583C55.836 59.0483 50.6189 53.771 44.1834 53.771C37.7478 53.771 32.5308 59.0483 32.5308 65.5583C32.5308 72.0682 37.7478 77.3456 44.1834 77.3456Z" fill="#ECF1F3"/>
<path d="M44.1845 83.2379C32.5085 83.2379 23 91.159 23 100.919C23 101.579 23.5127 102.098 24.1653 102.098H64.2037C64.8563 102.098 65.369 101.579 65.369 100.919C65.369 91.159 55.8604 83.2379 44.1845 83.2379Z" fill="#ECF1F3"/>
</svg>
