<svg width="35" height="40" viewBox="0 0 35 40" fill="none" xmlns="http://www.w3.org/2000/svg">
<g opacity="0.8">
<path d="M17.6751 21.3C17.5589 21.2833 17.4413 21.2833 17.3251 21.3C16.0883 21.2524 14.9162 20.6573 14.0563 19.6403C13.1964 18.6233 12.716 17.2642 12.7167 15.85C12.7167 12.8333 14.8459 10.3833 17.5001 10.3833C18.7534 10.3808 19.9574 10.9413 20.8525 11.944C21.7476 12.9466 22.2621 14.3111 22.2851 15.7433C22.308 17.1754 21.8376 18.5606 20.9752 19.6C20.1129 20.6395 18.9277 21.25 17.6751 21.3V21.3ZM27.3292 32.3C24.6492 35.1151 21.1401 36.674 17.5001 36.6666C13.7084 36.6666 10.2667 35.0166 7.6709 32.3C7.81673 30.7333 8.69173 29.2 10.2521 28C14.248 24.9666 20.7813 24.9666 24.748 28C26.3084 29.2 27.1834 30.7333 27.3292 32.3V32.3Z" stroke="black" stroke-width="1.5" stroke-linecap="round" stroke-linejoin="round"/>
<path d="M17.5001 36.6667C25.5545 36.6667 32.0834 29.205 32.0834 20C32.0834 10.795 25.5545 3.33337 17.5001 3.33337C9.44571 3.33337 2.91675 10.795 2.91675 20C2.91675 29.205 9.44571 36.6667 17.5001 36.6667Z" stroke="black" stroke-width="1.5" stroke-linecap="round" stroke-linejoin="round"/>
</g>
</svg>
