<svg width="16" height="16" viewBox="0 0 16 16" fill="none" xmlns="http://www.w3.org/2000/svg">
<path fill-rule="evenodd" clip-rule="evenodd" d="M0 7.50588C0 3.3605 3.3605 0 7.50588 0C11.6513 0 15.0117 3.3605 15.0117 7.50588C15.0117 11.6512 11.6513 15.0117 7.50588 15.0117C3.3605 15.0117 0 11.6512 0 7.50588ZM7.50588 1.07666C3.95512 1.07666 1.07667 3.95512 1.07667 7.50588C1.07667 11.0566 3.95512 13.9351 7.50588 13.9351C11.0566 13.9351 13.935 11.0566 13.935 7.50588C13.935 3.95512 11.0566 1.07666 7.50588 1.07666ZM10.1734 4.83865C10.3946 5.05994 10.3946 5.41874 10.1734 5.64004L8.3074 7.506L10.1734 9.37198C10.3946 9.59328 10.3946 9.95208 10.1734 10.1734C9.95208 10.3947 9.59328 10.3947 9.37198 10.1734L7.506 8.30739L5.64004 10.1734C5.41874 10.3947 5.05994 10.3947 4.83865 10.1734C4.61735 9.95208 4.61735 9.59328 4.83865 9.37198L6.70462 7.506L4.83865 5.64004C4.61735 5.41874 4.61735 5.05994 4.83865 4.83865C5.05994 4.61735 5.41874 4.61735 5.64004 4.83865L7.506 6.70462L9.37198 4.83865C9.59328 4.61735 9.95208 4.61735 10.1734 4.83865Z" fill="#81A7BA"/>
</svg>
