<svg width="31" height="29" viewBox="0 0 31 29" fill="none" xmlns="http://www.w3.org/2000/svg">
<g opacity="0.8">
<path d="M7.75 12.0833V9.66663C7.75 5.66704 9.04167 2.41663 15.5 2.41663C21.9583 2.41663 23.25 5.66704 23.25 9.66663V12.0833M15.5 22.3541C16.3564 22.3541 17.1778 22.0359 17.7834 21.4693C18.389 20.9028 18.7292 20.1345 18.7292 19.3333C18.7292 18.5321 18.389 17.7638 17.7834 17.1972C17.1778 16.6307 16.3564 16.3125 15.5 16.3125C14.6436 16.3125 13.8222 16.6307 13.2166 17.1972C12.611 17.7638 12.2708 18.5321 12.2708 19.3333C12.2708 20.1345 12.611 20.9028 13.2166 21.4693C13.8222 22.0359 14.6436 22.3541 15.5 22.3541Z" stroke="black" stroke-width="1.5" stroke-linecap="round" stroke-linejoin="round"/>
<path d="M21.9583 26.5834H9.04159C3.87492 26.5834 2.58325 25.375 2.58325 20.5417V18.125C2.58325 13.2917 3.87492 12.0834 9.04159 12.0834H21.9583C27.1249 12.0834 28.4166 13.2917 28.4166 18.125V20.5417C28.4166 25.375 27.1249 26.5834 21.9583 26.5834Z" stroke="black" stroke-width="1.5" stroke-linecap="round" stroke-linejoin="round"/>
</g>
</svg>
