<svg width="15" height="15" viewBox="0 0 15 15" fill="none" xmlns="http://www.w3.org/2000/svg">
<path d="M7.5 0C3.36 0 0 3.36 0 7.5C0 11.64 3.36 15 7.5 15C11.64 15 15 11.64 15 7.5C15 3.36 11.64 0 7.5 0ZM7.5 13.5C4.1925 13.5 1.5 10.8075 1.5 7.5C1.5 4.1925 4.1925 1.5 7.5 1.5C10.8075 1.5 13.5 4.1925 13.5 7.5C13.5 10.8075 10.8075 13.5 7.5 13.5ZM11.4731 4.71938C11.1804 4.42456 10.7038 4.42371 10.41 4.7175L6.70574 8.42176C6.31575 8.81175 5.68364 8.81236 5.2929 8.42313L4.58676 7.71972C4.29429 7.42838 3.82116 7.42884 3.52926 7.72074C3.23696 8.01304 3.23696 8.48696 3.52926 8.77926L5.29289 10.5429C5.68342 10.9334 6.31658 10.9334 6.70711 10.5429L11.4712 5.77875C11.7636 5.48643 11.7644 5.01274 11.4731 4.71938Z" fill="#2DC937"/>
</svg>
