<?xml version="1.0" encoding="UTF-8"?><svg xmlns="http://www.w3.org/2000/svg" viewBox="0 0 1138.31 188.54"><defs><style>.cls-1{fill:none;isolation:isolate;}.cls-2{fill:#45649a;}.cls-3{fill:#38c4fb;}.cls-3,.cls-4,.cls-5{mix-blend-mode:multiply;}.cls-4{fill:#94afff;}.cls-5{fill:#9eeefd;}</style></defs><g class="cls-1"><g id="Livello_2"><g id="Livello_1-2"><path class="cls-4" d="m187.12,94.98c0,51.59-41.97,93.56-93.56,93.56S0,146.57,0,94.98,41.97,1.42,93.56,1.42v30.78c-34.62,0-62.79,28.16-62.79,62.78,0,23.03,12.46,43.2,31,54.13,8.2,4.84,17.59,7.86,27.61,8.52,1.38.09,2.77.14,4.18.14,11.59,0,22.46-3.16,31.79-8.66,18.53-10.93,30.99-31.1,30.99-54.13h30.78Z"/><polygon class="cls-5" points="188.11 62.3 156.66 62.45 125.66 62.61 125.35 .15 155.9 0 156.06 31.9 187.96 31.75 188.11 62.3"/><polygon class="cls-3" points="156.33 95.02 125.77 95.17 125.62 62.64 93.71 62.8 93.56 32.25 156.02 31.94 156.33 95.02"/><path class="cls-2" d="m359.53,52.44c11.04,0,20.02,3.34,26.97,10.01,6.94,6.67,10.42,15.49,10.42,26.47v56.85h-26.47v-50.66c0-5.4-1.43-9.67-4.27-12.83-2.85-3.15-6.64-4.73-11.37-4.73s-8.6,1.53-11.78,4.59c-3.18,3.06-4.78,7.38-4.78,12.96v50.66h-26.29v-50.66c0-5.4-1.43-9.67-4.27-12.83-2.85-3.15-6.7-4.73-11.55-4.73s-8.46,1.52-11.55,4.55c-3.09,3.03-4.64,7.37-4.64,13.01v50.66h-26.29V54.26h26.29v11.01c5.88-8.55,14.58-12.83,26.1-12.83s20.71,4.46,25.92,13.37c2.73-4,6.58-7.23,11.55-9.69,4.97-2.46,10.31-3.68,16.01-3.68Z"/><path class="cls-2" d="m503.97,96.92c0,3.21-.18,6.34-.55,9.37h-67.95c.91,5.94,3.49,10.69,7.73,14.23,4.24,3.55,9.43,5.32,15.55,5.32,5.03,0,9.14-.98,12.32-2.96,3.18-1.97,5.14-4.59,5.87-7.87h25.74c-1.52,9.82-6.22,17.71-14.1,23.65-7.88,5.94-17.59,8.91-29.11,8.91-8.85,0-16.96-2.11-24.33-6.32-7.37-4.21-13.17-10.01-17.42-17.37-4.25-7.37-6.37-15.48-6.37-24.33,0-13.28,4.59-24.45,13.78-33.52,9.19-9.06,20.45-13.6,33.79-13.6,8.12,0,15.64,1.94,22.56,5.82,6.91,3.88,12.38,9.25,16.42,16.1,4.03,6.85,6.05,14.37,6.05,22.56Zm-67.22-7.37h39.84c-.36-4.55-2.36-8.34-6-11.37-3.64-3.03-7.91-4.55-12.83-4.55-5.15,0-9.55,1.33-13.19,4-3.64,2.67-6.25,6.64-7.82,11.92Z"/><path class="cls-2" d="m585.2,15.33h26.29v130.43h-26.29v-13.01c-6.67,9.88-16.37,14.83-29.11,14.83-7.76,0-14.9-2.14-21.42-6.41-6.52-4.27-11.66-10.06-15.42-17.37-3.76-7.31-5.64-15.27-5.64-23.88s1.88-16.57,5.64-23.88c3.76-7.31,8.9-13.07,15.42-17.28,6.52-4.21,13.66-6.32,21.42-6.32,12.73,0,22.44,4.97,29.11,14.92V15.33Zm-22.92,107.15c6.43,0,11.85-2.17,16.28-6.5,4.43-4.33,6.64-9.69,6.64-16.05s-2.21-11.64-6.64-16.01c-4.43-4.37-9.85-6.55-16.28-6.55s-11.7,2.2-16.19,6.59c-4.49,4.4-6.73,9.72-6.73,15.96s2.23,11.64,6.69,16.01,9.87,6.55,16.24,6.55Z"/><path class="cls-2" d="m625.13,109.66v-24.65h60.4v24.65h-60.4Z"/><path class="cls-2" d="m786.03,54.26l-37.84,91.5h-22.38l-38.02-91.5h28.56l20.65,55.76,20.28-55.76h28.74Z"/><path class="cls-2" d="m880.08,96.92c0,3.21-.18,6.34-.54,9.37h-67.95c.91,5.94,3.49,10.69,7.73,14.23,4.24,3.55,9.43,5.32,15.55,5.32,5.03,0,9.14-.98,12.32-2.96,3.18-1.97,5.14-4.59,5.87-7.87h25.74c-1.52,9.82-6.22,17.71-14.1,23.65-7.88,5.94-17.59,8.91-29.11,8.91-8.85,0-16.96-2.11-24.33-6.32-7.37-4.21-13.17-10.01-17.42-17.37-4.25-7.37-6.37-15.48-6.37-24.33,0-13.28,4.59-24.45,13.78-33.52,9.19-9.06,20.45-13.6,33.79-13.6,8.12,0,15.64,1.94,22.56,5.82,6.91,3.88,12.38,9.25,16.42,16.1,4.03,6.85,6.05,14.37,6.05,22.56Zm-67.22-7.37h39.84c-.36-4.55-2.37-8.34-6-11.37-3.64-3.03-7.91-4.55-12.83-4.55-5.15,0-9.55,1.33-13.19,4-3.64,2.67-6.25,6.64-7.82,11.92Z"/><path class="cls-2" d="m944.66,52.44c1.88,0,4.82.36,8.82,1.09v23.83c-3.7-.85-6.88-1.27-9.55-1.27-6.73,0-12.23,2.08-16.51,6.23-4.27,4.15-6.41,10.26-6.41,18.33v45.12h-26.29V54.26h26.29v10.46c5.64-8.19,13.52-12.28,23.65-12.28Z"/><path class="cls-2" d="m1000.51,147.59c-12.07,0-21.91-2.9-29.52-8.69-7.61-5.79-11.87-13.81-12.78-24.06h25.2c.24,3.09,1.85,5.58,4.82,7.46,2.97,1.88,6.64,2.82,11.01,2.82,3.88,0,6.9-.61,9.05-1.82,2.15-1.21,3.23-2.91,3.23-5.09,0-2-.94-3.64-2.82-4.91-1.88-1.27-4.34-2.23-7.37-2.87-3.03-.64-6.38-1.26-10.05-1.87-3.67-.6-7.32-1.46-10.96-2.55-3.64-1.09-6.97-2.49-10-4.18-3.03-1.7-5.49-4.2-7.37-7.5-1.88-3.3-2.82-7.26-2.82-11.87,0-8.67,3.29-15.84,9.87-21.51,6.58-5.67,15.39-8.5,26.42-8.5,10.43,0,19.37,2.67,26.83,8,7.46,5.34,11.73,12.86,12.83,22.56h-26.47c-.18-2.42-1.52-4.49-4-6.19-2.49-1.7-5.73-2.55-9.73-2.55-3.15,0-5.69.53-7.6,1.59-1.91,1.06-2.87,2.62-2.87,4.68,0,1.88.96,3.38,2.87,4.5,1.91,1.12,4.38,1.96,7.41,2.5,3.03.55,6.37,1.09,10.01,1.64,3.64.55,7.29,1.4,10.96,2.55,3.67,1.15,7.02,2.68,10.05,4.59,3.03,1.91,5.5,4.72,7.41,8.41,1.91,3.7,2.87,8.13,2.87,13.28,0,8.37-3.5,15.39-10.51,21.06-7,5.67-15.66,8.5-25.97,8.5Z"/><path class="cls-2" d="m1138.31,96.92c0,3.21-.18,6.34-.54,9.37h-67.95c.91,5.94,3.49,10.69,7.73,14.23,4.24,3.55,9.43,5.32,15.55,5.32,5.03,0,9.14-.98,12.32-2.96,3.18-1.97,5.14-4.59,5.87-7.87h25.74c-1.52,9.82-6.22,17.71-14.1,23.65-7.88,5.94-17.59,8.91-29.11,8.91-8.85,0-16.96-2.11-24.33-6.32-7.37-4.21-13.17-10.01-17.42-17.37-4.25-7.37-6.37-15.48-6.37-24.33,0-13.28,4.59-24.45,13.78-33.52,9.19-9.06,20.45-13.6,33.79-13.6,8.12,0,15.64,1.94,22.56,5.82,6.91,3.88,12.38,9.25,16.42,16.1,4.03,6.85,6.05,14.37,6.05,22.56Zm-67.22-7.37h39.84c-.36-4.55-2.37-8.34-6-11.37-3.64-3.03-7.91-4.55-12.83-4.55-5.15,0-9.55,1.33-13.19,4-3.64,2.67-6.25,6.64-7.82,11.92Z"/></g></g></g></svg>