<svg width="30" height="30" viewBox="0 0 30 30" fill="none" xmlns="http://www.w3.org/2000/svg">
<path fill-rule="evenodd" clip-rule="evenodd" d="M15 0C6.72 0 0 6.72 0 15C0 23.28 6.72 30 15 30C23.28 30 30 23.28 30 15C30 6.72 23.28 0 15 0ZM15 4.5C17.49 4.5 19.5 6.51 19.5 9C19.5 11.49 17.49 13.5 15 13.5C12.51 13.5 10.5 11.49 10.5 9C10.5 6.51 12.51 4.5 15 4.5ZM15 25.8001C11.3801 25.8001 8.00098 23.9866 6 20.9701C6.045 17.9851 12 16.3501 15 16.3501C17.985 16.3501 23.955 17.9851 24 20.9701C21.999 23.9866 18.6199 25.8001 15 25.8001Z" fill="#65C5B9"/>
</svg>
